<?xml version="1.0" encoding="utf-8"?>
<!-- Generator: Adobe Illustrator 17.0.0, SVG Export Plug-In . SVG Version: 6.00 Build 0)  -->
<!DOCTYPE svg PUBLIC "-//W3C//DTD SVG 1.1//EN" "http://www.w3.org/Graphics/SVG/1.1/DTD/svg11.dtd">
<svg version="1.1" id="Layer_1" xmlns="http://www.w3.org/2000/svg" xmlns:xlink="http://www.w3.org/1999/xlink" x="0px" y="0px"
	 width="226.581px" height="50.222px" viewBox="0 0 226.581 50.222" enable-background="new 0 0 226.581 50.222"
	 xml:space="preserve">
<g>
	<g>
		<path fill="#FFFFFF" d="M36.01,5.739c-9.2-6.14-20.93-6.39-31.55-5.11c-1.68,0.22-4.43,0.43-4.43,2.48
			c-0.06,13.96,0.02,27.93-0.03,41.89c0.04,0.85-0.02,2.92,1.59,3.2c8.1,1.06,16.45,1.04,24.44-0.86
			c7.29-1.75,14.46-6.04,17.69-13.08C48.48,24.539,45.06,11.719,36.01,5.739z M37.05,26.909c-0.4,5.91-3.87,11.59-9.17,14.33
			c-6.05,3.15-13.1,3.6-19.78,3.13c-0.01-13.28,0.01-26.56-0.01-39.83c7.78-0.85,16.4-0.2,22.7,4.93
			C35.95,13.569,37.68,20.589,37.05,26.909z"/>
		<path fill="#FFFFFF" d="M102.323,47.816c-4.163,1.39-9.145,1.996-12.948-0.639c-2.351-1.444-3.472-4.245-3.393-6.928
			c-0.039-7.985,0.008-15.97-0.008-23.956c-1.775-0.008-3.677-0.008-5.444-0.008c-1.37,0-1.395-3.078,0-3.078
			c1.807,0,3.614-0.008,5.429-0.008c0.016-1.31,0.019-3.983,0.019-3.983c0-0.963,0.216-1.467,0.549-1.799
			c1.609-1.607,3.543-2.904,5.579-3.874c0,0,0.032-0.016,0.095-0.039c0.253-0.11,1.048-0.308,1.055,0.655c0,0.008,0,0.008,0,0.016
			c0.016,2.967-0.014,6.003,0.01,9.025c2.563,0,4.598,0,7.396,0c1.825,0,1.862,3.09,0.082,3.09c-2.696,0-4.989-0.014-7.455,0.02
			c0.016,7.48,0.047,14.96,0.024,22.448c-0.016,2.004,0.26,4.356,2.036,5.618c1.796,1.225,4.011,1.076,6.124,1.17
			C103.151,45.62,103.472,47.432,102.323,47.816z"/>
		<path fill="#FFFFFF" d="M75.94,22.159c0.02-3.11-1.23-6.46-4.1-8c-4.46-2.38-9.9-2.14-14.63-0.89c-3.52,0.93-7.93,3.13-8.14,7.24
			c-0.15,2.98,4.62,3.93,6.09,1.53c1.28-2.1,2.3-4.75,4.92-5.51c2.82-0.82,7.24-0.66,8.23,2.67c0.71,2.37,0.74,4.85,0.45,7.44
			c-5.8,2.2-12.5,2.7-17.81,6.1c-3.49,2.11-5.23,6.76-3.46,10.56c1.92,4.12,6.82,5.57,10.98,5.82c4.73,0.3,9.66-0.02,14.14-1.8
			c1.92-0.75,3.27-2.64,3.27-4.72C75.87,35.789,76.13,28.969,75.94,22.159z M68.75,41.829c-0.12,1.43-1.14,2.68-2.5,3.08
			c-3.04,0.9-6.54,0.83-9.31-0.83c-3.09-1.88-3.66-6.92-0.73-9.21c3.64-2.84,8.36-3.6,12.7-4.88
			C68.83,33.929,69.06,37.889,68.75,41.829z"/>
		<path fill="#FFFFFF" d="M133.34,22.159c0.02-3.11-1.23-6.46-4.1-8c-4.46-2.38-9.9-2.14-14.63-0.89c-3.52,0.93-7.94,3.13-8.14,7.24
			c-0.15,2.98,4.62,3.93,6.09,1.53c1.28-2.1,2.3-4.75,4.92-5.51c2.81-0.82,7.24-0.66,8.23,2.67c0.71,2.37,0.74,4.85,0.45,7.44
			c-5.8,2.2-12.51,2.7-17.82,6.1c-3.48,2.11-5.22,6.76-3.45,10.56c1.92,4.12,6.82,5.57,10.97,5.82c4.74,0.3,9.66-0.02,14.15-1.8
			c1.92-0.75,3.27-2.64,3.27-4.72C133.27,35.789,133.52,28.969,133.34,22.159z M126.15,41.829c-0.12,1.43-1.14,2.68-2.51,3.08
			c-3.03,0.9-6.54,0.83-9.3-0.83c-3.09-1.88-3.66-6.92-0.73-9.21c3.64-2.84,8.36-3.6,12.69-4.88
			C126.22,33.929,126.46,37.889,126.15,41.829z"/>
	</g>
	<g>
		<path fill="#FFFFFF" d="M226.557,41.633c0,2.224-1.604,4.362-3.537,5.251c-5.092,2.375-10.835,2.945-16.361,2.437
			c-3.252-0.374-6.726-1.213-9.114-3.683c-1.971-1.995-2.687-4.918-2.676-7.69c-0.098-7.657-0.103-21.394-0.06-23.451
			c0-1.721,2.443-1.682,3.691-1.682c1.227,0,3.567-0.039,3.567,1.66c0.016,1.682,0.027,3.37,0.027,5.052h0.005v17.801
			c0.005,2.75,1.212,5.902,4.126,6.833c2.922,0.934,5.693,0.853,8.676,0.152c2.997-0.704,4.414-4.317,4.414-6.72
			c0-8.196,0.045-15.228,0.045-23.096c0-1.721,2.408-1.682,3.656-1.682c1.227,0,3.567-0.039,3.567,1.66
			C226.581,23.738,226.557,32.366,226.557,41.633z"/>
		<rect x="194.782" y="6.229" fill="#FFFFFF" width="31.799" height="3.292"/>
	</g>
	<path fill="#FFFFFF" d="M191.98,1.621c-0.54,2.6-1.05,5.17-1.75,7.78c-0.25,0.72-1.02,0.86-1.42,0.36
		c-0.96-1.16-2.21-2.34-3.82-2.19c-2.92,0.25-5.66,1.84-7.67,4c-2.58,2.78-5.09,5.63-7.64,8.43c-0.53,0.53-1.37,1.55-1.37,1.55
		s0.28,1.36,0.39,1.87c0.85,4.13,1.67,8.27,2.87,12.3c0.74,2.46,1.52,4.78,3.16,6.6c1.07,1.2,2.81,1.5,4.32,1.18
		c2.89-0.53,5.33-2.32,7.83-3.79c0.47,0.62,0.93,1.23,1.39,1.86c-4.05,2.91-8.08,5.98-12.67,7.95c-2.2,0.94-4.91,1.06-6.91-0.42
		c-2.29-1.64-3.3-4.45-4.12-7.06c-1.06-3.64-1.78-8.2-2.41-11.98c0,0.01-0.01,0.01-0.01,0.02c-3.66,4.62-7.38,9.21-11.35,13.57
		c-2.95,3.23-6.98,7.51-11.35,6.3c-1.59-0.44-2.05-2.06-1.71-3.08c0.54-2.6,1.05-5.17,1.75-7.78c0.25-0.72,1.02-0.86,1.42-0.36
		c0.96,1.16,2.21,2.34,3.82,2.19c2.92-0.25,5.66-1.84,7.67-4c2.58-2.78,5.09-5.63,7.64-8.43c0.53-0.53,1.37-1.55,1.37-1.55
		s-0.28-1.36-0.39-1.87c-0.85-4.13-1.25-6.54-2.45-10.57c-0.74-2.46-1.52-4.78-3.16-6.6c-1.07-1.2-2.81-1.5-4.32-1.18
		c-2.89,0.53-5.33,2.32-7.83,3.79c-0.47-0.62-0.93-1.23-1.39-1.86c4.05-2.91,8.08-5.98,12.67-7.95c2.2-0.94,4.91-1.06,6.91,0.42
		c2.29,1.64,3.3,4.45,4.12,7.06c0.96,3.3,1.54,6.7,2.1,10.1c3.63-4.58,7.32-9.12,11.25-13.44c2.95-3.23,7.37-5.67,11.77-4.57
		C191.29,0.431,192.32,0.601,191.98,1.621z"/>
</g>
</svg>
